<?xml version="1.0" encoding="UTF-8"?>
<svg width="700pt" height="700pt" version="1.1" viewBox="0 0 700 700" xmlns="http://www.w3.org/2000/svg" xmlns:xlink="http://www.w3.org/1999/xlink">
 <defs>
  <symbol id="m" overflow="visible">
   <path d="m30.25-1.8125c-1.5625 0.8125-3.1875 1.4219-4.875 1.8281-1.6875 0.41406-3.4492 0.625-5.2812 0.625-5.4922 0-9.8398-1.5312-13.047-4.5938-3.1992-3.0703-4.7969-7.2266-4.7969-12.469 0-5.2578 1.5977-9.4219 4.7969-12.484 3.207-3.0703 7.5547-4.6094 13.047-4.6094 1.832 0 3.5938 0.21094 5.2812 0.625 1.6875 0.40625 3.3125 1.0156 4.875 1.8281v6.8125c-1.5742-1.0703-3.125-1.8594-4.6562-2.3594-1.5234-0.5-3.1328-0.75-4.8281-0.75-3.0234 0-5.4023 0.96875-7.1406 2.9062-1.7305 1.9375-2.5938 4.6172-2.5938 8.0312 0 3.3984 0.86328 6.0625 2.5938 8 1.7383 1.9375 4.1172 2.9062 7.1406 2.9062 1.6953 0 3.3047-0.25 4.8281-0.75 1.5312-0.5 3.082-1.2852 4.6562-2.3594z"/>
  </symbol>
  <symbol id="h" overflow="visible">
   <path d="m22.141-17.969c-0.69922-0.32031-1.3906-0.5625-2.0781-0.71875-0.67969-0.15625-1.3594-0.23438-2.0469-0.23438-2.0312 0-3.5938 0.65234-4.6875 1.9531-1.0938 1.3047-1.6406 3.168-1.6406 5.5938v11.375h-7.8906v-24.688h7.8906v4.0469c1.0078-1.6133 2.1719-2.7891 3.4844-3.5312 1.3203-0.75 2.8984-1.125 4.7344-1.125 0.26953 0 0.55469 0.015625 0.85938 0.046875 0.3125 0.023438 0.75781 0.070312 1.3438 0.14062z"/>
  </symbol>
  <symbol id="c" overflow="visible">
   <path d="m28.438-12.406v2.2344h-18.453c0.19531 1.8555 0.86719 3.2461 2.0156 4.1719 1.1445 0.92969 2.7422 1.3906 4.7969 1.3906 1.6641 0 3.3672-0.24219 5.1094-0.73438 1.7383-0.48828 3.5312-1.2344 5.375-2.2344v6.0781c-1.875 0.71094-3.7461 1.2422-5.6094 1.5938-1.8672 0.36328-3.7305 0.54688-5.5938 0.54688-4.4688 0-7.9453-1.1328-10.422-3.4062-2.4805-2.2695-3.7188-5.457-3.7188-9.5625 0-4.0195 1.2109-7.1875 3.6406-9.5 2.4375-2.3125 5.7852-3.4688 10.047-3.4688 3.8828 0 6.9883 1.1719 9.3125 3.5156 2.332 2.3359 3.5 5.4609 3.5 9.375zm-8.1094-2.625c0-1.5-0.4375-2.707-1.3125-3.625-0.875-0.92578-2.0156-1.3906-3.4219-1.3906-1.5312 0-2.7773 0.43359-3.7344 1.2969-0.96094 0.85547-1.5547 2.0938-1.7812 3.7188z"/>
  </symbol>
  <symbol id="b" overflow="visible">
   <path d="m14.859-11.109c-1.6484 0-2.8867 0.28125-3.7188 0.84375-0.82422 0.55469-1.2344 1.3711-1.2344 2.4531 0 1 0.33203 1.7891 1 2.3594 0.66406 0.5625 1.5938 0.84375 2.7812 0.84375 1.4883 0 2.7383-0.53125 3.75-1.5938 1.0195-1.0703 1.5312-2.4062 1.5312-4v-0.90625zm12.062-2.9844v14.094h-7.9531v-3.6562c-1.0625 1.5-2.2578 2.5938-3.5781 3.2812-1.3242 0.67578-2.9336 1.0156-4.8281 1.0156-2.5625 0-4.6406-0.74219-6.2344-2.2344-1.5938-1.5-2.3906-3.4375-2.3906-5.8125 0-2.8945 0.99219-5.0195 2.9844-6.375 2-1.3516 5.1289-2.0312 9.3906-2.0312h4.6562v-0.60938c0-1.25-0.49609-2.1641-1.4844-2.75-0.99219-0.58203-2.5273-0.875-4.6094-0.875-1.6875 0-3.2617 0.17188-4.7188 0.51562-1.4609 0.33594-2.8125 0.83984-4.0625 1.5156v-6.0156c1.6953-0.41406 3.3945-0.72656 5.0938-0.9375 1.707-0.21875 3.4141-0.32812 5.125-0.32812 4.4453 0 7.6602 0.88281 9.6406 2.6406 1.9766 1.7617 2.9688 4.6172 2.9688 8.5625z"/>
  </symbol>
  <symbol id="g" overflow="visible">
   <path d="m12.406-31.703v7.0156h8.1406v5.6406h-8.1406v10.469c0 1.1484 0.22656 1.9219 0.6875 2.3281 0.45703 0.40625 1.3633 0.60938 2.7188 0.60938h4.0469v5.6406h-6.7656c-3.1172 0-5.3242-0.64844-6.625-1.9531-1.3047-1.3008-1.9531-3.5078-1.9531-6.625v-10.469h-3.9219v-5.6406h3.9219v-7.0156z"/>
  </symbol>
  <symbol id="f" overflow="visible">
   <path d="m20.594-21.078v-13.234h7.9375v34.312h-7.9375v-3.5781c-1.0859 1.4609-2.2812 2.5273-3.5938 3.2031s-2.8281 1.0156-4.5469 1.0156c-3.043 0-5.543-1.207-7.5-3.625-1.9492-2.4141-2.9219-5.5312-2.9219-9.3438 0-3.8008 0.97266-6.9102 2.9219-9.3281 1.957-2.4258 4.457-3.6406 7.5-3.6406 1.707 0 3.2188 0.34375 4.5312 1.0312 1.3203 0.6875 2.5234 1.75 3.6094 3.1875zm-5.2031 15.984c1.6875 0 2.9727-0.61328 3.8594-1.8438 0.89453-1.2383 1.3438-3.0352 1.3438-5.3906 0-2.3516-0.44922-4.1445-1.3438-5.375-0.88672-1.2383-2.1719-1.8594-3.8594-1.8594-1.6797 0-2.9648 0.62109-3.8594 1.8594-0.88672 1.2305-1.3281 3.0234-1.3281 5.375 0 2.3555 0.44141 4.1523 1.3281 5.3906 0.89453 1.2305 2.1797 1.8438 3.8594 1.8438z"/>
  </symbol>
  <symbol id="e" overflow="visible">
   <path d="m16.938-5.0938c1.6875 0 2.9727-0.61328 3.8594-1.8438 0.89453-1.2383 1.3438-3.0352 1.3438-5.3906 0-2.3516-0.44922-4.1445-1.3438-5.375-0.88672-1.2383-2.1719-1.8594-3.8594-1.8594-1.6992 0-3 0.625-3.9062 1.875-0.89844 1.2422-1.3438 3.0273-1.3438 5.3594 0 2.3438 0.44531 4.1367 1.3438 5.375 0.90625 1.2422 2.207 1.8594 3.9062 1.8594zm-5.25-15.984c1.082-1.4375 2.2852-2.5 3.6094-3.1875 1.3203-0.6875 2.8438-1.0312 4.5625-1.0312 3.0508 0 5.5508 1.2148 7.5 3.6406 1.957 2.418 2.9375 5.5273 2.9375 9.3281 0 3.8125-0.98047 6.9297-2.9375 9.3438-1.9492 2.418-4.4492 3.625-7.5 3.625-1.7188 0-3.2422-0.33984-4.5625-1.0156-1.3242-0.6875-2.5273-1.7539-3.6094-3.2031v3.5781h-7.8906v-34.312h7.8906z"/>
  </symbol>
  <symbol id="a" overflow="visible">
   <path d="m0.54688-24.688h7.8906l6.6406 16.75 5.6406-16.75h7.9062l-10.391 27.031c-1.043 2.7383-2.2617 4.6562-3.6562 5.75-1.3867 1.1016-3.2188 1.6562-5.5 1.6562h-4.5625v-5.1875h2.4688c1.3438 0 2.3164-0.21484 2.9219-0.64062 0.61328-0.42969 1.0859-1.1953 1.4219-2.2969l0.21875-0.67188z"/>
  </symbol>
  <symbol id="d" overflow="visible">
   <path d="m4.1406-32.922h22.906v6.4219h-14.406v6.125h13.547v6.4219h-13.547v7.5312h14.906v6.4219h-23.406z"/>
  </symbol>
  <symbol id="l" overflow="visible">
   <path d="m3.5312-9.6094v-15.078h7.9375v2.4688c0 1.3359-0.011719 3.0117-0.03125 5.0312-0.011719 2.0234-0.015625 3.3711-0.015625 4.0469 0 1.9805 0.050781 3.4062 0.15625 4.2812 0.10156 0.875 0.28125 1.5117 0.53125 1.9062 0.32031 0.52344 0.74219 0.92188 1.2656 1.2031 0.51953 0.28125 1.1172 0.42188 1.7969 0.42188 1.6445 0 2.9375-0.62891 3.875-1.8906 0.94531-1.2695 1.4219-3.0312 1.4219-5.2812v-12.188h7.8906v24.688h-7.8906v-3.5781c-1.1992 1.4492-2.4648 2.5156-3.7969 3.2031-1.3242 0.67578-2.7891 1.0156-4.3906 1.0156-2.8555 0-5.0273-0.875-6.5156-2.625-1.4922-1.75-2.2344-4.2891-2.2344-7.625z"/>
  </symbol>
  <symbol id="k" overflow="visible">
   <path d="m23.75-23.922v6.4375c-1.0742-0.73828-2.1523-1.2812-3.2344-1.625-1.0859-0.35156-2.2031-0.53125-3.3594-0.53125-2.2109 0-3.9297 0.64844-5.1562 1.9375-1.2188 1.2812-1.8281 3.0742-1.8281 5.375 0 2.3125 0.60938 4.1172 1.8281 5.4062 1.2266 1.2812 2.9453 1.9219 5.1562 1.9219 1.2266 0 2.3945-0.17969 3.5-0.54688 1.1133-0.375 2.1445-0.92188 3.0938-1.6406v6.4531c-1.2422 0.46094-2.4961 0.80078-3.7656 1.0312-1.2734 0.22656-2.5469 0.34375-3.8281 0.34375-4.4492 0-7.9336-1.1406-10.453-3.4219-2.5117-2.2891-3.7656-5.4727-3.7656-9.5469 0-4.0703 1.2539-7.25 3.7656-9.5312 2.5195-2.2891 6.0039-3.4375 10.453-3.4375 1.3008 0 2.5781 0.11719 3.8281 0.34375 1.2578 0.23047 2.5156 0.57422 3.7656 1.0312z"/>
  </symbol>
  <symbol id="j" overflow="visible">
   <path d="m3.7969-34.312h7.8906v34.312h-7.8906z"/>
  </symbol>
  <symbol id="i" overflow="visible">
   <path d="m11.688-3.5781v12.969h-7.8906v-34.078h7.8906v3.6094c1.082-1.4375 2.2852-2.5 3.6094-3.1875 1.3203-0.6875 2.8438-1.0312 4.5625-1.0312 3.0508 0 5.5508 1.2148 7.5 3.6406 1.957 2.418 2.9375 5.5273 2.9375 9.3281 0 3.8125-0.98047 6.9297-2.9375 9.3438-1.9492 2.418-4.4492 3.625-7.5 3.625-1.7188 0-3.2422-0.33984-4.5625-1.0156-1.3242-0.6875-2.5273-1.7539-3.6094-3.2031zm5.25-15.984c-1.6992 0-3 0.625-3.9062 1.875-0.89844 1.2422-1.3438 3.0273-1.3438 5.3594 0 2.3438 0.44531 4.1367 1.3438 5.375 0.90625 1.2422 2.207 1.8594 3.9062 1.8594 1.6875 0 2.9727-0.61328 3.8594-1.8438 0.89453-1.2383 1.3438-3.0352 1.3438-5.3906 0-2.3516-0.44922-4.1445-1.3438-5.375-0.88672-1.2383-2.1719-1.8594-3.8594-1.8594z"/>
  </symbol>
 </defs>
 <g>
  <path d="m175.2 153.55c0 4.9883-4.0469 9.0352-9.0352 9.0352-4.9883 0-9.0312-4.0469-9.0312-9.0352s4.043-9.0312 9.0312-9.0312c4.9883 0 9.0352 4.043 9.0352 9.0312"/>
  <path d="m229.39 153.55c0 4.9883-4.043 9.0352-9.0312 9.0352s-9.0312-4.0469-9.0312-9.0352 4.043-9.0312 9.0312-9.0312 9.0312 4.043 9.0312 9.0312"/>
  <path d="m171.45 198.71c5.8242 5.8242 13.566 9.0312 21.812 9.0312 8.2461 0 15.988-3.207 21.805-9.0312l2.6445-2.6445-12.773-12.773-2.6445 2.6445c-4.8125 4.832-13.23 4.832-18.066 0l-2.6445-2.6445-12.773 12.773z"/>
  <path d="m608.74 361.29h-88.867c21.027-16.059 34.676-41.312 34.676-69.754 0-21.262-7.7148-41.809-21.73-57.824l-39.742-45.414 18.262-36.527-27.902-27.91-28.242 18.832-28.242-18.832-27.902 27.91 18.262 36.527-39.742 45.414c-14.016 16.012-21.73 36.562-21.73 57.824 0 28.441 13.648 53.695 34.676 69.758l-106.93-0.003907v-44.41c0-33.672-22.371-62.496-54.195-71.227v-5.4648c21.199-12.672 34.457-34.809 35.848-59.539l9.3164-0.003907c14.938 0 27.098-12.156 27.098-27.098 0-11.762-7.5781-21.695-18.066-25.434v-1.6602c0-29.465-14.242-55.594-36.137-72.094-0.003906-0.058594 0.007813-0.11328 0.007813-0.16406 0-29.887-24.305-54.195-54.195-54.195-29.887 0-54.191 24.305-54.191 54.195 0 0.054688 0.007813 0.10938 0.007813 0.16406-21.895 16.5-36.137 42.629-36.137 72.094v1.6602c-10.488 3.7383-18.066 13.676-18.066 25.434 0 14.938 12.156 27.098 27.098 27.098h9.3125c1.3984 24.73 14.648 46.867 35.848 59.539v5.4648c-31.82 8.7344-54.195 37.555-54.195 71.227l0.003906 44.414h-18.066c-9.9609 0-18.066 8.1016-18.066 18.066v18.066c0 9.9609 8.1016 18.066 18.066 18.066v126.45c0 9.9609 8.1016 18.066 18.066 18.066h487.74c9.9609 0 18.066-8.1016 18.066-18.066l-0.003906-126.46c9.9609 0 18.066-8.1016 18.066-18.066v-18.066c0-9.9609-8.1016-18.062-18.066-18.062zm-179.5-214.18 25.949 17.297 25.949-17.297 8.2266 8.2188-12.66 25.316h-43.031l-12.652-25.316zm-55.344 144.43c0-16.891 6.1328-33.211 17.262-45.938l41.035-46.887h46l41.023 46.887c11.129 12.734 17.262 29.047 17.262 45.938 0 38.457-31.289 69.754-69.758 69.754h-23.078c-38.457 0-69.746-31.297-69.746-69.754zm-129.9 69.754-12.652-25.316 4.4336-4.4258c1.9688-1.9688 3.668-4.1172 5.1562-6.3867h24.578v36.129zm-72.258-18.062h43.031l9.0312 18.066h-61.094zm102.81-180.64h-9.0312v-18.066h9.0312c4.9766 0 9.0312 4.0469 9.0312 9.0312 0 4.9883-4.0547 9.0352-9.0312 9.0352zm-81.293-144.52c15.941 0 29.355 10.449 34.133 24.812-10.539-4.3281-22.055-6.75-34.133-6.75-12.074 0-23.594 2.4219-34.133 6.7461 4.7773-14.359 18.191-24.809 34.133-24.809zm-90.32 135.48c0-4.9844 4.0547-9.0312 9.0312-9.0312h9.0312v18.066h-9.0312c-4.9766 0-9.0312-4.0469-9.0312-9.0352zm19.59-27.094h-1.5273c0-39.84 32.418-72.258 72.258-72.258 39.84 0 72.258 32.418 72.258 72.258h-0.8125c-2.4648-10.422-10.848-18.633-21.832-20.457l-43.68-7.2891-16.746 16.746-34.348-17.164-4.0391 2.0234c-10.781 5.3906-18.441 14.922-21.531 26.141zm16.539 49.93v-38.766c0-7.5781 3.5391-14.504 9.4492-18.922l37.492 18.742 19.383-19.383 34.512 5.7539c4.3789 0.72656 7.5508 4.4766 7.5508 8.9102v43.66c0 21.469-11.93 40.781-31.133 50.371l-4.9961 2.5078v22.184l-2.8555 8.5703c-2.1836 6.5586-8.3008 10.957-15.211 10.957-6.9102 0-13.023-4.3984-15.211-10.965l-2.8516-8.5742v-22.184l-4.9961-2.4922c-19.203-9.5898-31.133-28.902-31.133-50.371zm21.188 87.352 0.66016 1.9883c4.6523 13.941 17.648 23.309 32.344 23.309 14.695 0 27.691-9.3672 32.344-23.312l0.66016-1.9883c19.996 6.1953 34.785 22.859 38.379 43.363l-17.551 0.003906c0.11719-1.2461 0.35938-2.4648 0.35938-3.7383v-1.5547c0-10.648-4.1445-20.656-11.668-28.191l-12.781 12.773c4.1211 4.1172 6.3867 9.6016 6.3867 15.418v1.5547c0 5.8242-2.2656 11.301-6.3867 15.418l-6.3828 6.3828h-46.715l-6.3867-6.3867c-4.1172-4.1172-6.3867-9.5977-6.3867-15.418v-1.5547c0-5.8242 2.2656-11.301 6.3945-15.418l-12.781-12.773c-7.5312 7.5391-11.676 17.547-11.676 28.195v1.5547c0 1.2734 0.25 2.4922 0.35938 3.7383h-17.551c3.5977-20.496 18.383-37.168 38.379-43.363zm-39.254 61.426h24.578c1.4922 2.2656 3.1992 4.418 5.168 6.3867l4.4258 4.4258-12.656 25.316h-21.516zm469.68 216.77h-487.74v-126.45h487.74zm-505.81-144.52v-18.066h381.87l142 0.003907 0.007812 18.066z"/>
  <path d="m329.84 514.84c2.7383 0 5.3828-0.45312 7.9375-1.2031v19.266h18.066v-19.266c2.5547 0.75 5.2031 1.2031 7.9375 1.2031 15.547 0 28.191-12.645 28.191-28.191 0-7.4258-3.0078-14.688-8.2539-19.934l-36.906-36.906-36.906 36.906c-5.25 5.2461-8.2578 12.508-8.2578 19.934 0 15.547 12.645 28.191 28.191 28.191zm-7.1641-35.352 24.137-24.137 24.133 24.133c1.8789 1.8906 2.9609 4.5 2.9609 7.1641 0 5.582-4.543 10.125-10.125 10.125-2.7109 0-5.2461-1.0469-7.1641-2.9609l-9.8047-9.8086-9.8086 9.8086c-1.918 1.9141-4.4531 2.9609-7.1641 2.9609-5.582 0-10.125-4.543-10.125-10.125 0-2.6641 1.082-5.2734 2.9609-7.1602z"/>
  <path d="m482.29 325.16v-27.098c0-14.938-12.156-27.098-27.098-27.098-4.9766 0-9.0312-4.0469-9.0312-9.0312v-9.0312h9.0312c4.9766 0 9.0312 4.0469 9.0312 9.0312v9.0312h18.066v-9.0312c0-11.762-7.5781-21.695-18.066-25.434l0.003906-19.727h-18.066v18.066h-18.066v27.098c0 14.938 12.156 27.098 27.098 27.098 4.9766 0 9.0312 4.0469 9.0312 9.0312v9.0312h-9.0312c-4.9766 0-9.0312-4.0469-9.0312-9.0312v-9.0312h-18.066v9.0312c0 11.762 7.5781 21.695 18.066 25.434v19.727h18.066v-18.066z"/>
  <path d="m633.19 205.09-12.77-12.77-20.711 20.711v-86.582h-18.066v86.582l-20.711-20.711-12.77 12.77 42.516 42.516z"/>
  <path d="m581.64 90.324h18.066v18.066h-18.066z"/>
  <path d="m581.64 54.195h18.066v18.066h-18.066z"/>
  <path d="m337.77 75.996v86.586h18.066v-86.586l20.711 20.711 12.77-12.77-42.512-42.516-42.516 42.516 12.77 12.77z"/>
  <path d="m337.77 180.64h18.066v18.066h-18.066z"/>
  <path d="m337.77 216.77h18.066v18.066h-18.066z"/>
  <use x="66.808594" y="695.484375" xlink:href="#m"/>
  <use x="99.949219" y="695.484375" xlink:href="#h"/>
  <use x="122.222656" y="695.484375" xlink:href="#c"/>
  <use x="152.851562" y="695.484375" xlink:href="#b"/>
  <use x="183.328125" y="695.484375" xlink:href="#g"/>
  <use x="204.914062" y="695.484375" xlink:href="#c"/>
  <use x="235.542969" y="695.484375" xlink:href="#f"/>
  <use x="283.59375" y="695.484375" xlink:href="#e"/>
  <use x="315.921875" y="695.484375" xlink:href="#a"/>
  <use x="361.082031" y="695.484375" xlink:href="#d"/>
  <use x="391.933594" y="695.484375" xlink:href="#l"/>
  <use x="424.085938" y="695.484375" xlink:href="#k"/>
  <use x="450.855469" y="695.484375" xlink:href="#b"/>
  <use x="481.328125" y="695.484375" xlink:href="#j"/>
  <use x="496.808594" y="695.484375" xlink:href="#a"/>
  <use x="526.25" y="695.484375" xlink:href="#i"/>
 </g>
</svg>
